# xmcd CD database file
#
# Track frame offsets:
#	150
#	15025
#	30057
#	54550
#	70275
#	87775
#	97062
#	113352
#	127452
#	147630
#	165780
#	187757
#	212112
#
# Disc length: 3285 seconds
#
# Revision: 0
# Processed by: cddbd v1.5.1PL0 Copyright (c) Steve Scherf et al.
# Submitted via: CDex 1.51
#
DISCID=a00cd30d
DTITLE=Soft Side - Jazz Serenade 2
DYEAR=2000
DGENRE=Jazz
TTITLE0=Sarah Vaughan - Summer Time
TTITLE1=Billie Holiday - You've Changed
TTITLE2=Stan Getz - Misty
TTITLE3=Hohnny Mathis - Stardust
TTITLE4=Mel Torme - That's All
TTITLE5=Tony Bennett - I Fall In Love Too Easily 
TTITLE6=Chet Baker - I Married An Angel
TTITLE7=Duke Ellington - Moon Indigo
TTITLE8=Keiko Lee - Rainy Days And Mondays 
TTITLE9=Grover Washington, Jr. - O mio Babbino Caro
TTITLE10=Miles Davis - Stella By Starlight
TTITLE11=T-Spuare - Twilight In Upper West
TTITLE12=Hubert Laws - Pavane
EXTD=YEAR: 2000
EXTT0=
EXTT1=
EXTT2=
EXTT3=
EXTT4=
EXTT5=
EXTT6=
EXTT7=
EXTT8=
EXTT9=
EXTT10=
EXTT11=
EXTT12=
PLAYORDER=
